<?xml version="1.0" encoding="utf-8"?>
<!-- Generator: Adobe Illustrator 22.0.0, SVG Export Plug-In . SVG Version: 6.00 Build 0)  -->
<svg version="1.1" id="Layer_1" xmlns="http://www.w3.org/2000/svg" xmlns:xlink="http://www.w3.org/1999/xlink" x="0px" y="0px"
	 viewBox="0 0 53 53" style="enable-background:new 0 0 53 53;" xml:space="preserve">
<style type="text/css">
	.st0{fill:#E4E3FF;}
	.st1{fill:#FC6559;}
	.st2{opacity:0.3;}
	.st3{fill:#FFFFFF;}
	.st4{fill:#F05543;}
	.st5{fill:#474646;}
	.st6{fill:#2D2C2C;}
	.st7{fill:#C2C2EF;}
	.st8{opacity:0.25;}
	.st9{fill:#7979F7;}
	.st10{fill:#5E5EEF;}
	.st11{fill:#D0D0F7;}
	.st12{opacity:0.5;}
	.st13{fill:#F9B938;}
	.st14{fill:#ECB021;}
	.st15{fill:#1B1B1B;}
	.st16{fill:#A2A2F9;}
	.st17{fill:#E24B40;}
	.st18{fill:#8666C6;}
	.st19{fill:#7553AA;}
	.st20{fill:#00D67F;}
	.st21{fill:#00C179;}
	.st22{fill:none;}
	.st23{fill:#E5A320;}
	.st24{opacity:0.4;}
	.st25{fill:#444444;}
	.st26{fill:#333333;}
	.st27{fill:#F7F363;}
	.st28{fill:#F7E839;}
	.st29{fill:#00AF68;}
	.st30{fill:#F4B37D;}
	.st31{fill:#F2A764;}
	.st32{fill:#F7C9A9;}
	.st33{fill:#F0B68E;}
	.st34{opacity:0.2;}
	.st35{fill:#B75F25;}
	.st36{fill:#AA5821;}
	.st37{fill:#B6A3EF;}
	.st38{fill:#A186E0;}
	.st39{fill:#A04747;}
	.st40{fill:#7F3939;}
	.st41{fill:#FF8D8D;}
	.st42{fill:#FF7B7B;}
	.st43{fill:#F3FCFF;}
	.st44{fill:#E8AA80;}
	.st45{fill:#994F1D;}
	.st46{fill:#5BC658;}
	.st47{fill:#49A247;}
	.st48{fill:#F96B6B;}
	.st49{fill:#3C9B3A;}
	.st50{fill:#EA9C5C;}
</style>
<g id="_x32_9">
	<g>
		<g>
			<g>
				<path class="st0" d="M40.5147324,37.9496956V15.054945c0-1.3464365-1.0915031-2.4379396-2.4379425-2.4379396H14.9129972
					c-1.3424845,0-2.4307833,1.0882988-2.4307833,2.4307842v22.9019051c0,1.3424759,1.0882912,2.4307671,2.4307661,2.4307671
					h23.1709862C39.4264412,40.3804626,40.5147324,39.2921715,40.5147324,37.9496956z"/>
			</g>
		</g>
		<g>
			<g>
				<path class="st11" d="M40.5177879,15.0529814v22.8992729c0,1.3369179-1.0938683,2.4307404-2.4306984,2.4307404H14.9161396
					c-0.957984,0-1.7873287-0.5576248-2.1805754-1.3655014c0.3217716,0.1644211,0.6792364,0.2502098,1.0653276,0.2502098H36.971756
					c1.3440742,0,2.4307823-1.0867081,2.4307823-2.4307404V13.9376907c0-0.3860474-0.0857887-0.7506695-0.2502098-1.0723972
					C39.9601173,13.2584972,40.5177879,14.0949984,40.5177879,15.0529814z"/>
			</g>
		</g>
		<g>
			<g>
				<g>
					<path class="st16" d="M15.5802336,38.0467987c-0.520112,0-0.9431763-0.4263535-0.9431763-0.9500847V15.900754
						c0-0.5237312,0.4230642-0.9500847,0.9431763-0.9500847h21.8361473c0.5201149,0,0.9435081,0.4263535,0.9435081,0.9500847
						v21.195961c0,0.5237312-0.4233932,0.9500847-0.9435081,0.9500847H15.5802336z"/>
				</g>
			</g>
			<g>
				<g>
					<path class="st9" d="M38.3627396,15.9036646v0.2645216H16.7932262c-0.5147285,0-0.9436703,0.4218273-0.9436703,0.9508705
						v20.9260559h-0.2717648c-0.5147295,0-0.9436712-0.4218292-0.9436712-0.9508705V15.9036646
						c0-0.5290422,0.4289417-0.9508276,0.9436712-0.9508276h21.8411884
						C37.9337082,14.952837,38.3627396,15.3746223,38.3627396,15.9036646z"/>
				</g>
			</g>
			<g>
				<g>
					<g>
						<g>
							<path class="st0" d="M34.9673462,32.7212677H17.0063648l5.918417-10.468502l2.4007492-4.2454872
								c0.4979153-0.8805141,1.6846962-0.8804398,2.1825161,0.0001354l2.6189785,4.6326027l5.2528763,9.2902679
								C35.5759544,32.2770233,35.3442497,32.7212677,34.9673462,32.7212677z"/>
						</g>
					</g>
					<g>
						<g>
							<path class="st36" d="M34.9716415,32.7169037H17.0053253l2.5237274-4.4611645
								c0.0566444-0.1000214,3.6158714-6.3849964,3.3887691-5.9839725c0.0071564-0.0071564,0.0071564-0.0143108,0.0214672-0.0285816
								l0.7935638-0.5576668c0.0500069-0.0285816,0.1215706-0.0071564,0.1358833,0.0643635l0.3717785,1.5299206
								c0.0213814,0.1000996,0.1572628,0.1000996,0.1787319,0l0.2787457-1.358345
								c0.0214691-0.0929432,0.142952-0.1072559,0.1787338-0.0214672l0.7292442,1.8588467
								c0.0357819,0.1000576,0.1572628,0.0857887,0.1715755-0.0214691l0.400404-2.1519508
								c0.0143127-0.0929432,0.1286392-0.1143684,0.1644211-0.0428925l0.543354,0.886507
								c0.0571632,0.0786762,0.1715775,0.0428944,0.1715775-0.0571632c0-0.1029568,0.1367455-0.1267796,0.1787319-0.0428944
								l0.6576805,1.3369179c0.0500946,0.0786324,0.1787338,0.0500507,0.1787338-0.0572052v-2.0947437
								c0-0.071476,0.0787182-0.1215267,0.1430378-0.0857887l1.8874302,1.2010784
								c0.0143127,0.0071564,0.0214691,0.0214252,0.0357819,0.035738l2.2161827,3.9035416l0.6220741,1.1009789l2.4021568,4.2610073
								C35.5792274,32.2736511,35.3433304,32.7169037,34.9716415,32.7169037z"/>
						</g>
					</g>
					<g>
						<g>
							<path class="st45" d="M28.2440243,32.7169037h-11.238699l2.5237274-4.4611645
								c2.7637539,0.4525375,5.4192085,1.5795555,7.6068802,3.4173927
								C27.5290928,32.0019722,27.9008713,32.3522835,28.2440243,32.7169037z"/>
						</g>
					</g>
					<g>
						<g>
							<path class="st45" d="M34.9716415,32.7169037h-9.6515751c0.2572784-0.3431511,0.5361996-0.6720352,0.8364143-0.9866085
								c1.5581875-1.7067585,3.9409447-3.2440796,6.8204746-4.0608044l2.4021568,4.2610073
								C35.5792274,32.2736511,35.3433304,32.7169037,34.9716415,32.7169037z"/>
						</g>
					</g>
				</g>
				<g>
					<g class="st12">
						<g>
							<g>
								<path class="st3" d="M24.9630413,20.4764881c-0.1507263-0.0851669-0.204031-0.276638-0.1185589-0.4273643
									l0.9276409-1.6408348c0.0851669-0.1510334,0.2769451-0.2040329,0.4273663-0.1185589
									c0.1507263,0.0851669,0.204031,0.276638,0.1185589,0.4273643l-0.9276428,1.6408348
									C25.3051777,20.508894,25.1136303,20.5617275,24.9630413,20.4764881z"/>
							</g>
						</g>
					</g>
				</g>
			</g>
			<g>
				<g>
					<g>
						<g>
							<path class="st13" d="M36.9264069,20.5634632l-0.6688728,0.257658
								c-0.0636368,0.02421-0.1068687,0.0840416-0.1103287,0.152174l-0.0383873,0.7155647
								c-0.0058784,0.1096325-0.1110153,0.1860657-0.2171936,0.1577072l-0.6923904-0.1846848
								c-0.065712-0.0172939-0.1359177,0.005188-0.1788025,0.0584488l-0.451683,0.5564728
								c-0.0691681,0.0850773-0.1992073,0.0850773-0.2683792,0L33.84869,21.7203312
								c-0.0428848-0.0529137-0.1130943-0.0757427-0.1788025-0.0581036l-0.6923904,0.1846848
								c-0.1058311,0.0283585-0.2113152-0.0480728-0.2171974-0.1577072l-0.0383873-0.7155628
								c-0.0034599-0.0681343-0.0466881-0.127964-0.1103249-0.152174l-0.6688747-0.2576599
								c-0.1023712-0.0394268-0.1428356-0.1632404-0.083004-0.2552376l0.3894253-0.6014309
								c0.0370064-0.0574112,0.0370064-0.1307316,0-0.1881409l-0.3897724-0.6014347
								c-0.0598297-0.0919971-0.0193672-0.2158089,0.0830059-0.2552357l0.6688728-0.2580051
								c0.0636368-0.02421,0.1068687-0.0840416,0.1103249-0.1518288l0.0383911-0.7155609
								c0.0058784-0.1096363,0.1110153-0.1860676,0.2171936-0.1577091l0.6923904,0.1846848
								c0.065712,0.017292,0.1359177-0.0051899,0.1788025-0.0584488l0.451683-0.5564709
								c0.0691681-0.0850811,0.1992073-0.0850811,0.2683792,0l0.4516792,0.5564709
								c0.0428848,0.0529156,0.1130943,0.0757408,0.1788025,0.0581017l0.6923904-0.1846828
								c0.1058311-0.0283585,0.2113152,0.0480728,0.2171936,0.1577072l0.0383911,0.7155647
								c0.0034599,0.0681305,0.0466881,0.1279621,0.1103249,0.1521721l0.6688728,0.257658
								c0.102375,0.0394268,0.1428375,0.1632423,0.0830078,0.2552376l-0.3894272,0.6014328
								c-0.0370064,0.0574112-0.0370064,0.1307297,0,0.1881428l0.3897705,0.6014309
								C37.0692444,20.4002228,37.0287781,20.5240383,36.9264069,20.5634632z"/>
						</g>
					</g>
					<g class="st2">
						<g>
							<g>
								<path class="st3" d="M33.9894485,17.7283993c-0.0365715-0.0296917-0.0421219-0.0833569-0.0124855-0.1199284
									l0.3910294-0.4817638c0.0296898-0.0365734,0.0832977-0.0421772,0.1199265-0.0124874
									c0.0365715,0.0296898,0.0421219,0.0833549,0.0124855,0.1199284l-0.3910255,0.4817657
									C34.0798798,17.7521992,34.0262146,17.7581997,33.9894485,17.7283993z"/>
							</g>
						</g>
					</g>
					<g class="st2">
						<g>
							<g>
								<path class="st3" d="M32.9713669,18.350626c-0.0014992,0-0.0030518-0.0000553-0.0046082-0.0001106
									c-0.0470047-0.0025539-0.0830765-0.0426769-0.0805779-0.0896835l0.0332413-0.6200619
									c0.0013885-0.0256386,0.0142632-0.0493355,0.0350189-0.0644321c0.0207558-0.0150394,0.047226-0.0199776,0.0720901-0.0133743
									l0.6005821,0.1601639c0.0454521,0.0120983,0.0725327,0.0588264,0.060379,0.104332
									c-0.0121536,0.0455074-0.0588799,0.0723133-0.104332,0.0603809l-0.4016953-0.1071129
									c-0.0502014-0.0133858-0.1000023,0.0227966-0.1027832,0.0746746l-0.0222397,0.4145317
									C33.0540009,18.3153858,33.0163727,18.350626,32.9713669,18.350626z"/>
							</g>
						</g>
					</g>
					<g>
						<g>
							<path class="st14" d="M35.7718124,17.8767204l-0.0250092-0.4597645l0.1442757-0.0384769
								c0.1058044-0.0278912,0.2116127,0.0480938,0.2173805,0.1577454l0.0317383,0.5915394l-0.2577782-0.0990677
								C35.8179779,18.0046501,35.7746925,17.945015,35.7718124,17.8767204z"/>
						</g>
					</g>
					<g>
						<g>
							<path class="st14" d="M36.9260406,20.5631886l-0.6684914,0.2577782
								c-0.063488,0.0240459-0.1067657,0.0846443-0.1106186,0.1519756l-0.0384712,0.7156219
								c-0.0057678,0.1096535-0.1106148,0.1866016-0.2164154,0.1577454l-0.6925392-0.1846733
								c-0.0663681-0.0173187-0.1365814,0.0057697-0.1789055,0.058672l-0.4520721,0.5569134
								c-0.0692596,0.0846424-0.1991081,0.0846424-0.268364,0l-0.252964-0.3126049
								c0.0529022,0.0038509,0.1086845-0.017313,0.1461983-0.0634804l0.452076-0.5559559
								c0.0423203-0.0529003,0.1125374-0.075985,0.1789055-0.058672l0.6915741,0.1846752
								c0.1067657,0.0288544,0.2116089-0.0480938,0.2173805-0.1577473l0.0384789-0.7156162
								c0.0038452-0.0682926,0.0471306-0.1279278,0.1106071-0.1519756l0.6684952-0.2577763
								c0.1029167-0.0394402,0.1433144-0.163517,0.0836792-0.2548943l-0.3905144-0.601162
								c-0.0365486-0.0577087-0.0365486-0.1308117,0-0.1885262l0.3857079-0.5953903l0.2962532,0.1135044
								c0.1019554,0.0394344,0.1433144,0.1635113,0.0827179,0.2558517l-0.3895493,0.601162
								c-0.0365524,0.0577087-0.0365524,0.1308098,0,0.1885262l0.3905144,0.60116
								C37.069355,20.4006348,37.0289612,20.523756,36.9260406,20.5631886z"/>
						</g>
					</g>
				</g>
				<g>
					<g>
						<path class="st14" d="M35.9674873,19.612627c0,0.8471317-0.686161,1.5332947-1.5329056,1.5332947
							c-0.8471336,0-1.5332947-0.6861629-1.5332947-1.5332947c0-0.8467445,0.686161-1.5329037,1.5332947-1.5329037
							C35.2813263,18.0797234,35.9674873,18.7658825,35.9674873,19.612627z"/>
					</g>
				</g>
				<g>
					<g>
						<path class="st23" d="M33.2389526,20.5718918c0.26194,0.2100563,0.5950165,0.3355865,0.9573784,0.3355865
							c0.8469124,0,1.5331497-0.6862354,1.5331497-1.5331478c0-0.360693-0.1246948-0.6929283-0.3339119-0.9548683
							c0.3481407,0.2803497,0.5715866,0.7105026,0.5715866,1.1933784c0,0.8469143-0.6862373,1.5331497-1.5323143,1.5331497
							C33.9502907,21.1459904,33.5193062,20.9225407,33.2389526,20.5718918z"/>
					</g>
				</g>
			</g>
			<g>
				<g>
					<g>
						<path class="st46" d="M30.3906937,38.0437126H15.4885645c-0.4770174,0-0.8637161-0.3866997-0.8637161-0.8637161v-8.3220482
							c0.6431913-0.0989456,1.3193979-0.1318588,1.9955034-0.1318588c3.4961853,0,6.6790276,1.0388699,9.13624,2.7869625
							c0.3298512,0.2309036,0.6266842,0.4618092,0.9235191,0.7092228
							C28.5436554,33.7888832,29.8630543,35.8008957,30.3906937,38.0437126z"/>
					</g>
				</g>
				<g class="st2">
					<g>
						<g>
							<path class="st3" d="M22.3668118,31.1958675c-1.7664795-0.7258682-3.7537365-1.1094532-5.7465515-1.1094532
								c-0.2048359,0-0.3710251-0.1661892-0.3710251-0.371027c0-0.2048359,0.1661892-0.3710251,0.3710251-0.3710251
								c2.0887108,0,4.173315,0.4029102,6.0286865,1.1650105c0.1893768,0.078022,0.2799587,0.2946949,0.202179,0.484314
								C22.7728195,31.1839981,22.5557728,31.273035,22.3668118,31.1958675z"/>
						</g>
					</g>
				</g>
				<g>
					<g>
						<path class="st47" d="M30.3906937,38.0437126h-7.7345066l0.0165081-0.1483688
							c0.3133411-2.3418617,1.3688202-4.5516624,3.0838966-6.3822918c0.3298512,0.2309036,0.6266842,0.4618092,0.9235191,0.7092228
							C28.5436554,33.7888832,29.8630543,35.8008957,30.3906937,38.0437126z"/>
					</g>
				</g>
				<g>
					<g>
						<path class="st46" d="M38.3704948,27.7539558v9.4269447c0,0.4770203-0.3866997,0.8637161-0.8637161,0.8637161h-13.681776
							c0.2803268-2.1768837,1.3027916-4.188797,2.852993-5.821537c2.5561581-2.7375393,6.59659-4.50214,11.1317463-4.50214
							C37.9911232,27.7209396,38.1890106,27.7209396,38.3704948,27.7539558z"/>
					</g>
				</g>
				<g class="st2">
					<g>
						<g>
							<path class="st3" d="M28.2162647,32.0997581c-0.1306801-0.157732-0.1086998-0.3915558,0.0492764-0.5222359
								c1.9097195-1.5807247,4.3308067-2.6336555,7.0016632-3.0452614c0.200489-0.0314026,0.3920403,0.1074905,0.4231987,0.310154
								c0.0311623,0.2024212-0.1077309,0.3920403-0.310154,0.4232006c-2.5384827,0.3913174-4.8349285,1.3882065-6.6417465,2.8834209
								C28.5804253,32.2800293,28.3463802,32.2573586,28.2162647,32.0997581z"/>
						</g>
					</g>
				</g>
				<g>
					<g>
						<path class="st47" d="M38.372097,27.7520733v9.4289989c0,0.4748955-0.3858795,0.8657265-0.8657265,0.8657265H23.8229542
							c0.0296822-0.2473488,0.0741882-0.4897499,0.1236763-0.7272263h4.6486645
							c4.9979439,0,9.0495758-4.0516319,9.0495758-9.0495758V27.722393h0.1632614
							C37.991169,27.722393,38.1890602,27.722393,38.372097,27.7520733z"/>
					</g>
				</g>
			</g>
		</g>
	</g>
	<g>
		<g class="st12">
			<g>
				<path class="st3" d="M13.0320139,30.7134209v-0.6710167c0-0.2428589,0.1970377-0.4398975,0.4398975-0.4398975
					c0.2428608,0,0.4398985,0.1970387,0.4398985,0.4398975v0.6710167c0,0.2428608-0.1970377,0.4398994-0.4398985,0.4398994
					C13.2290516,31.1533203,13.0320139,30.9562817,13.0320139,30.7134209z"/>
			</g>
		</g>
		<g class="st12">
			<g>
				<path class="st3" d="M13.0320139,28.8661919v-5.9065876c0-0.2428608,0.1970377-0.4398975,0.4398975-0.4398975
					c0.2428608,0,0.4398985,0.1970367,0.4398985,0.4398975v5.9065876c0,0.2428608-0.1970377,0.4398994-0.4398985,0.4398994
					C13.2290516,29.3060913,13.0320139,29.1090527,13.0320139,28.8661919z"/>
			</g>
		</g>
	</g>
	<g>
		<g class="st12">
			<g>
				<path class="st3" d="M20.2140465,13.3724747h0.6710167c0.2428608,0,0.4398975,0.1970377,0.4398975,0.4398985
					c0,0.2428598-0.1970367,0.4398985-0.4398975,0.4398985h-0.6710167c-0.2428608,0-0.4398975-0.1970387-0.4398975-0.4398985
					C19.7741489,13.5695124,19.9711857,13.3724747,20.2140465,13.3724747z"/>
			</g>
		</g>
		<g class="st12">
			<g>
				<path class="st3" d="M22.0612755,13.3724747h5.9065876c0.2428608,0,0.4398994,0.1970377,0.4398994,0.4398985
					c0,0.2428598-0.1970387,0.4398985-0.4398994,0.4398985h-5.9065876c-0.2428608,0-0.4398975-0.1970387-0.4398975-0.4398985
					C21.6213779,13.5695124,21.8184147,13.3724747,22.0612755,13.3724747z"/>
			</g>
		</g>
	</g>
	<g>
		<g>
			<g>
				<g>
					<path class="st13" d="M49.6783524,27.8302536l-4.4853477,2.2339954
						c-0.9837265,0.4899597-2.1391602-0.226614-2.1374588-1.3256016l0.0069427-4.4818783
						c0.0017052-1.0989876,1.1593513-1.8119774,2.1415558-1.3189716l4.478405,2.2478828
						C50.7712326,25.7321796,50.7688217,27.2871304,49.6783524,27.8302536z"/>
				</g>
			</g>
			<g>
				<g>
					<path class="st14" d="M49.6745949,27.8308372l-4.4767113,2.2303982
						c-0.8952293,0.4398479-1.9476814-0.1098671-2.1047173-1.0366344c0.2985382,0.0627937,0.6283302,0.0314445,0.9423981-0.1256847
						l4.4767113-2.2304001c0.6753044-0.3298855,0.9264793-1.0366344,0.7853622-1.6649609l0.3926811,0.1884785
						C50.774025,25.7261219,50.774025,27.2811222,49.6745949,27.8308372z"/>
				</g>
			</g>
		</g>
		<g>
			<g>
				<g>
					<path class="st13" d="M3.3181264,27.8302536l4.4853497,2.2339954c0.9837265,0.4899597,2.1391602-0.226614,2.1374569-1.3256016
						l-0.0069427-4.4818783c-0.0017033-1.0989876-1.1593513-1.8119774-2.1415548-1.3189716l-4.478406,2.2478828
						C2.2252486,25.7321796,2.2276578,27.2871304,3.3181264,27.8302536z"/>
				</g>
			</g>
			<g>
				<g>
					<path class="st14" d="M9.946557,28.7418823c0,0.6257381-0.3961048,1.1298599-0.8010845,1.3037262
						c-0.3926802,0.2042007-0.8796959,0.2355518-1.3352671,0.0156269l-4.4922433-2.2303982
						c-0.423934-0.2199249-0.6754949-0.5811615-0.7696385-0.9738407l4.0995626,2.0419197
						c0.9738402,0.5026417,2.1363516-0.2198277,2.1363516-1.3193531l-0.0157232-4.4766159
						c0-0.0942402-0.0157223-0.2042027-0.0314445-0.2984409c0.6595802,0.1256828,1.1937637,0.6911201,1.1937637,1.4451332
						L9.946557,28.7418823z"/>
				</g>
			</g>
		</g>
	</g>
	<g>
		<g>
			<g>
				<path class="st13" d="M25.1697464,3.3353634L22.935751,7.820713c-0.4899597,0.9837265,0.226614,2.1391602,1.3256016,2.1374578
					l4.4818783-0.0069437c1.0989876-0.0017023,1.8119774-1.1593513,1.3189716-2.1415548l-2.2478828-4.478406
					C27.2678204,2.2424858,25.7128696,2.2448947,25.1697464,3.3353634z"/>
			</g>
		</g>
		<g>
			<g>
				<g>
					<path class="st13" d="M25.1697464,49.6646347L22.935751,45.179287
						c-0.4899597-0.9837265,0.226614-2.1391602,1.3256016-2.1374588l4.4818783,0.0069466
						c1.0989876,0.0017014,1.8119774,1.1593513,1.3189716,2.141552l-2.2478828,4.4784088
						C27.2678204,50.757515,25.7128696,50.7551041,25.1697464,49.6646347z"/>
				</g>
			</g>
			<g>
				<g>
					<path class="st14" d="M30.0556526,45.189846l-2.2462177,4.4765205c-0.5338001,1.0838013-2.0889912,1.0838013-2.6387062,0
						l-0.1884785-0.3926811c0.6283264,0.157032,1.3350754-0.0942383,1.6648655-0.7696381l2.26194-4.4766159
						c0.1570339-0.3140678,0.1884785-0.6439552,0.1255894-0.9423981
						C29.9615078,43.2735138,30.5112228,44.3101501,30.0556526,45.189846z"/>
				</g>
			</g>
		</g>
		<g>
			<g>
				<path class="st14" d="M29.5845509,9.6865625c-0.0157223,0-0.0157223,0-0.0157223,0
					c-0.2199249,0.1727562-0.5184612,0.2669954-0.8325291,0.2669954h-4.4767132
					c-0.7539158,0-1.3191605-0.5339918-1.4449425-1.1937637c0.0943356,0.0314445,0.1884804,0.0314445,0.2826233,0.0314445h4.4924355
					c1.0994282,0,1.8061771-1.1623192,1.3193531-2.1361594l-2.0732689-4.099658
					c0.4084034,0.0942397,0.7696381,0.3456089,0.9736481,0.7697346l2.2462177,4.4922433
					C30.4170799,8.5085201,30.1497955,9.2781591,29.5845509,9.6865625z"/>
			</g>
		</g>
	</g>
</g>
</svg>
